HIERARCHY
ROOT Hips
{
	OFFSET 0.000000 0.000000 0.000000
	CHANNELS 6 Xposition Yposition Zposition Zrotation Xrotation Yrotation
	JOINT Spine1
	{
		OFFSET 0.000000 -0.000001 5.553894
		CHANNELS 6 Xposition Yposition Zposition Zrotation Xrotation Yrotation
		JOINT Neck
		{
			OFFSET 0.000000 -0.000001 4.427760
			CHANNELS 6 Xposition Yposition Zposition Zrotation Xrotation Yrotation
			JOINT Head
			{
				OFFSET 0.000000 -0.363272 2.815360
				CHANNELS 6 Xposition Yposition Zposition Zrotation Xrotation Yrotation
				End Site
				{
					OFFSET 0.000000 -0.000001 3.632711
				}
			}
		}
		JOINT LeftShoulder
		{
			OFFSET 0.731534 0.096024 3.575179
			CHANNELS 6 Xposition Yposition Zposition Zrotation Xrotation Yrotation
			JOINT LeftArm
			{
				OFFSET 2.610320 0.000000 0.000000
				CHANNELS 6 Xposition Yposition Zposition Zrotation Xrotation Yrotation
				JOINT LeftForeArm
				{
					OFFSET 5.118420 0.000000 0.000000
					CHANNELS 6 Xposition Yposition Zposition Zrotation Xrotation Yrotation
					JOINT LeftHand
					{
						OFFSET 4.756899 0.000000 0.000000
						CHANNELS 6 Xposition Yposition Zposition Zrotation Xrotation Yrotation
						End Site
						{
							OFFSET 2.724534 0.000000 0.000000
						}
					}
				}
			}
		}
		JOINT RightShoulder
		{
			OFFSET -0.721442 0.096024 3.575179
			CHANNELS 6 Xposition Yposition Zposition Zrotation Xrotation Yrotation
			JOINT RightArm
			{
				OFFSET -2.610320 0.000000 0.000000
				CHANNELS 6 Xposition Yposition Zposition Zrotation Xrotation Yrotation
				JOINT RightForeArm
				{
					OFFSET -5.118420 0.000000 0.000000
					CHANNELS 6 Xposition Yposition Zposition Zrotation Xrotation Yrotation
					JOINT RightHand
					{
						OFFSET -4.756900 0.000000 0.000000
						CHANNELS 6 Xposition Yposition Zposition Zrotation Xrotation Yrotation
						End Site
						{
							OFFSET -2.724534 0.000000 0.000000
						}
					}
				}
			}
		}
	}
	JOINT LeftUpLeg
	{
		OFFSET 1.816360 0.000000 0.000000
		CHANNELS 6 Xposition Yposition Zposition Zrotation Xrotation Yrotation
		JOINT LeftLeg
		{
			OFFSET 0.000000 0.000001 -7.638980
			CHANNELS 6 Xposition Yposition Zposition Zrotation Xrotation Yrotation
			JOINT LeftFoot
			{
				OFFSET 0.000000 0.000001 -8.008600
				CHANNELS 6 Xposition Yposition Zposition Zrotation Xrotation Yrotation
				JOINT LeftToeBase
				{
					OFFSET 0.000000 -2.724540 -1.180634
					CHANNELS 6 Xposition Yposition Zposition Zrotation Xrotation Yrotation
					End Site
					{
						OFFSET 0.000000 -0.726542 0.000000
					}
				}
			}
		}
	}
	JOINT RightUpLeg
	{
		OFFSET -1.816360 0.000000 0.000000
		CHANNELS 6 Xposition Yposition Zposition Zrotation Xrotation Yrotation
		JOINT RightLeg
		{
			OFFSET 0.000000 0.000001 -7.638980
			CHANNELS 6 Xposition Yposition Zposition Zrotation Xrotation Yrotation
			JOINT RightFoot
			{
				OFFSET 0.000000 0.000001 -8.008600
				CHANNELS 6 Xposition Yposition Zposition Zrotation Xrotation Yrotation
				JOINT RightToeBase
				{
					OFFSET 0.000000 -2.724540 -1.180634
					CHANNELS 6 Xposition Yposition Zposition Zrotation Xrotation Yrotation
					End Site
					{
						OFFSET 0.000000 -0.726542 0.000000
					}
				}
			}
		}
	}
}
MOTION
Frames: 6
Frame Time: 0.016667
0.628050 0.861919 14.910464 2.321249 11.644960 -1.484607 -0.000000 -0.000001 5.553893 -1.260536 -5.134360 -4.388903 -0.000000 -0.000001 4.427763 2.566712 5.719504 -2.454551 0.000000 -0.363271 2.815358 3.029359 9.960382 3.548843 0.731534 0.096024 3.575181 0.092900 -8.889846 -21.667617 2.610318 -0.000000 -0.000003 -8.353394 -9.949527 8.424306 5.118421 0.000000 0.000000 -1.958462 -9.683146 -2.628853 4.756899 -0.000000 0.000000 3.917414 -9.465426 7.756330 -0.721442 0.096024 3.575180 -6.162881 -4.679598 18.289322 -2.610321 -0.000000 -0.000003 20.932353 21.986809 -1.849126 -5.118421 -0.000000 0.000000 66.873214 35.506742 47.151528 -4.756903 0.000004 0.000000 5.605003 5.440236 28.128944 1.816360 0.000000 -0.000001 19.050116 -35.338446 -14.124811 -0.000001 0.000001 -7.638982 6.859589 33.304870 6.372816 -0.000001 0.000001 -8.008601 15.106594 0.260709 8.253559 0.000000 -2.724539 -1.180635 -0.000001 0.000002 0.000001 -1.816360 0.000000 -0.000000 5.643539 -29.410467 30.469740 0.000001 0.000001 -7.638980 -15.580213 40.125254 -20.193598 0.000000 0.000001 -8.008601 -32.494748 -13.409639 2.417767 0.000001 -2.724539 -1.180635 -0.000001 0.000002 0.000000 
0.640862 0.857761 14.898591 2.261051 11.568241 -1.495872 0.000000 -0.000000 5.553893 -1.202918 -5.052497 -4.428539 -0.000000 -0.000001 4.427761 2.560074 5.749437 -2.394912 -0.000000 -0.363271 2.815358 3.016242 10.007667 3.567247 0.731534 0.096024 3.575178 0.115450 -8.887615 -21.639258 2.610321 -0.000000 0.000000 -8.332676 -9.948064 8.472885 5.118420 -0.000000 0.000000 -1.944444 -9.716085 -2.634752 4.756901 0.000001 -0.000000 3.943849 -9.494821 7.802548 -0.721442 0.096024 3.575180 -6.166198 -4.645137 18.277771 -2.610319 -0.000001 -0.000004 20.932262 21.914980 -1.964994 -5.118420 0.000000 0.000003 67.138430 35.692755 47.190224 -4.756901 -0.000001 0.000002 5.588468 5.442591 27.985698 1.816360 0.000000 0.000000 19.024589 -35.344836 -14.298564 0.000000 0.000001 -7.638979 6.826347 33.621261 6.620832 0.000000 0.000002 -8.008601 15.154296 -0.090948 8.402437 0.000000 -2.724540 -1.180633 0.000003 -0.000000 -0.000001 -1.816360 0.000000 -0.000000 5.537793 -29.217995 30.708773 -0.000001 0.000002 -7.638979 -15.943854 40.164033 -20.347463 0.000000 0.000001 -8.008601 -32.548075 -13.318565 1.980882 -0.000000 -2.724539 -1.180634 -0.000003 0.000001 0.000000 
0.654311 0.853975 14.885995 2.180122 11.514035 -1.483382 0.000000 -0.000001 5.553893 -1.128713 -4.995679 -4.491201 -0.000000 -0.000001 4.427760 2.555072 5.796550 -2.325058 -0.000000 -0.363274 2.815355 3.003031 10.012495 3.547429 0.731534 0.096024 3.575177 0.101431 -8.902394 -21.644803 2.610319 -0.000000 -0.000002 -8.288760 -9.919788 8.550099 5.118419 0.000000 -0.000000 -1.915154 -9.762169 -2.605469 4.756898 0.000001 0.000002 3.977094 -9.538146 7.785322 -0.721442 0.096024 3.575178 -6.140711 -4.642047 18.247301 -2.610320 0.000000 0.000003 20.908123 21.805685 -2.066224 -5.118419 0.000000 0.000001 67.347824 35.948781 47.198082 -4.756902 -0.000000 0.000001 5.534961 5.590458 27.930998 1.816360 0.000000 0.000000 19.062394 -35.403968 -14.428186 -0.000001 0.000001 -7.638980 6.932063 33.967624 6.719473 0.000000 0.000000 -8.008599 15.038147 -0.427412 8.548672 -0.000000 -2.724540 -1.180633 -0.000000 -0.000003 -0.000002 -1.816360 0.000000 -0.000000 5.434014 -29.068267 30.924481 -0.000000 0.000002 -7.638978 -16.270395 40.202326 -20.503263 -0.000000 0.000001 -8.008601 -32.550438 -13.120863 1.705143 0.000000 -2.724540 -1.180634 -0.000004 0.000002 0.000000 
0.666013 0.847968 14.874370 2.059616 11.464062 -1.476722 -0.000000 -0.000001 5.553892 -1.019655 -4.946141 -4.529881 0.000000 -0.000001 4.427761 2.537358 5.830106 -2.309290 0.000000 -0.363272 2.815360 2.983475 10.052136 3.597847 0.731534 0.096024 3.575177 0.115765 -8.915326 -21.638811 2.610321 -0.000000 0.000002 -8.280547 -10.019891 8.593307 5.118421 -0.000000 -0.000003 -1.829874 -9.714527 -2.571790 4.756898 0.000001 0.000000 3.934042 -9.488944 7.843678 -0.721442 0.096024 3.575179 -6.175521 -4.602705 18.209467 -2.610320 -0.000000 -0.000002 20.970066 21.657490 -2.170434 -5.118420 -0.000001 0.000003 67.490506 36.193258 47.235242 -4.756902 0.000001 0.000002 5.453285 5.738859 27.889553 1.816360 0.000000 -0.000001 18.849131 -35.370674 -14.727894 -0.000000 0.000001 -7.638980 6.883528 34.265901 7.058223 -0.000001 0.000000 -8.008599 15.183707 -0.764764 8.526183 -0.000000 -2.724539 -1.180635 -0.000000 0.000001 -0.000001 -1.816360 -0.000000 -0.000001 5.433450 -28.893199 31.154279 -0.000001 0.000001 -7.638978 -16.489134 40.188809 -20.693231 0.000001 0.000001 -8.008599 -32.549649 -12.894867 1.238034 0.000000 -2.724540 -1.180634 0.000003 0.000000 -0.000002 
0.677492 0.842939 14.862297 1.922479 11.422314 -1.445872 -0.000000 -0.000001 5.553894 -0.918915 -4.897422 -4.605043 -0.000000 -0.000001 4.427761 2.536109 5.873248 -2.284809 0.000000 -0.363273 2.815359 2.980797 10.061455 3.647805 0.731534 0.096024 3.575177 0.107742 -8.926381 -21.620154 2.610320 -0.000000 0.000001 -8.215664 -10.081271 8.638946 5.118419 0.000000 -0.000000 -1.800314 -9.706191 -2.537741 4.756901 0.000001 0.000001 3.969995 -9.478215 7.807839 -0.721442 0.096024 3.575181 -6.179905 -4.574553 18.169480 -2.610320 -0.000000 -0.000004 21.022120 21.556183 -2.240333 -5.118419 0.000000 -0.000002 67.712153 36.341480 47.225670 -4.756902 0.000003 0.000002 5.532297 5.799674 27.944906 1.816360 0.000000 -0.000000 18.775034 -35.378491 -14.957894 0.000000 0.000002 -7.638980 6.713644 34.544969 7.382772 0.000001 0.000001 -8.008601 15.330802 -1.065503 8.528037 -0.000000 -2.724539 -1.180634 -0.000002 -0.000000 0.000002 -1.816360 0.000000 0.000001 5.410900 -28.749567 31.301767 -0.000001 0.000001 -7.638980 -16.690008 40.132450 -20.765887 0.000000 0.000001 -8.008602 -32.482771 -12.485702 0.610482 0.000000 -2.724539 -1.180633 0.000001 -0.000002 -0.000000 
0.688598 0.838785 14.851398 1.781154 11.409217 -1.411268 -0.000000 -0.000001 5.553894 -0.811321 -4.911805 -4.662770 0.000000 -0.000001 4.427763 2.524039 5.955300 -2.276008 -0.000000 -0.363272 2.815358 2.966488 10.062898 3.677126 0.731534 0.096024 3.575183 0.135316 -8.922288 -21.641038 2.610317 -0.000000 -0.000000 -8.209180 -10.211280 8.717040 5.118419 0.000001 0.000002 -1.719680 -9.653451 -2.528737 4.756901 -0.000000 0.000002 3.997095 -9.419577 7.869700 -0.721442 0.096024 3.575183 -6.144207 -4.582167 18.154945 -2.610320 -0.000000 0.000002 21.071960 21.536881 -2.397041 -5.118420 0.000000 0.000001 67.792086 36.555579 47.341769 -4.756903 -0.000002 0.000002 5.441566 5.887716 27.988268 1.816360 0.000000 -0.000000 18.701558 -35.429837 -15.123588 0.000000 0.000001 -7.638980 6.865830 34.840068 7.420457 0.000001 0.000001 -8.008599 15.243761 -1.303803 8.540638 -0.000000 -2.724540 -1.180635 -0.000001 0.000000 0.000000 -1.816360 -0.000000 -0.000002 5.406622 -28.631111 31.446874 -0.000000 0.000001 -7.638980 -16.869181 40.034392 -20.834845 0.000001 0.000002 -8.008599 -32.245941 -11.969118 0.239554 0.000000 -2.724539 -1.180634 -0.000004 0.000000 -0.000002 
